<svg width="25" height="25" viewBox="0 0 25 25" fill="none" xmlns="http://www.w3.org/2000/svg">
<path d="M17.6209 24.7009C14.5257 24.7762 11.1727 22.2658 11.1466 18.1919C11.1235 14.6131 14.0595 11.7292 17.6586 11.6887C21.2373 11.6482 24.1762 14.6218 24.1647 18.273C24.156 21.8576 21.2547 24.7038 17.6209 24.7009ZM17.2879 19.8887C17.2879 20.2014 17.2821 20.517 17.2879 20.8297C17.2937 21.1511 17.149 21.2582 16.8478 21.1685C16.1934 20.9774 15.5999 20.7139 15.4493 19.9437C15.403 19.7091 15.2669 19.576 15.0208 19.6049C14.7457 19.6368 14.7399 19.8539 14.737 20.0653C14.737 20.3433 14.8383 20.5865 14.9889 20.8123C15.4145 21.458 16.0516 21.7736 16.7812 21.9126C17.1518 21.9821 17.3284 22.1327 17.2995 22.5351C17.2763 22.8305 17.2069 23.2648 17.6499 23.2764C18.1102 23.2879 18.0234 22.8478 18.0118 22.5583C17.9973 22.1761 18.1363 21.9879 18.5185 21.9242C19.1179 21.8228 19.6564 21.5738 20.0878 21.1308C20.8175 20.3867 20.8001 19.3877 20.0415 18.6697C19.5956 18.2469 19.0513 18.0037 18.4519 17.9169C18.1392 17.8705 18.0176 17.7229 18.0205 17.4217C18.0263 16.8253 18.0321 16.2288 18.0176 15.6323C18.0089 15.2212 18.2029 15.1372 18.5475 15.2501C19.196 15.4615 19.7751 15.7481 19.9025 16.5241C19.9373 16.7442 20.0849 16.8513 20.3108 16.8108C20.5337 16.7702 20.6235 16.6168 20.6148 16.4025C20.6003 16.0261 20.4498 15.7047 20.2095 15.421C19.7867 14.92 19.2423 14.6276 18.6082 14.5031C18.2579 14.4336 17.9771 14.341 17.9973 13.8979C18.006 13.7039 17.8815 13.5737 17.6701 13.5737C17.4732 13.5737 17.2966 13.6837 17.3111 13.8719C17.3516 14.3815 17.01 14.4394 16.6451 14.5234C16.1153 14.6421 15.6404 14.8824 15.2495 15.2646C14.5633 15.9335 14.5372 16.9237 15.1829 17.6302C15.4754 17.9487 15.8431 18.1485 16.2311 18.3309C16.5641 18.4873 17.0765 18.3483 17.23 18.7247C17.3632 19.049 17.2735 19.4659 17.285 19.8423C17.285 19.8568 17.285 19.8742 17.285 19.8887H17.2879Z" fill="url(#paint0_linear_5659_104895)"/>
<path d="M8.4715 11.6744C9.61232 11.2951 10.3652 12.0016 11.0514 13.0903C11.477 13.7678 11.7434 14.263 11.1846 14.9723C10.9008 15.3343 10.7937 15.8236 10.675 16.2782C10.6084 16.5359 10.4578 16.6604 10.1972 16.7241C8.98982 17.0165 7.78531 17.0542 6.56631 16.8052C6.27387 16.7444 6.09435 16.6228 6.0017 16.3274C5.74111 15.5051 5.46311 14.6915 5.17936 13.8779C5.09249 13.6288 5.11566 13.4204 5.28359 13.2235C5.29228 13.2119 5.30099 13.1974 5.30968 13.1858C5.98531 12.1763 7.03923 11.6715 8.4715 11.6715V11.6744Z" fill="url(#paint1_linear_5659_104895)"/>
<path d="M7.84297 4.15195C8.03408 4.81791 7.66925 5.30434 6.9946 5.69813C6.3605 6.06875 5.77558 6.52623 5.18201 6.96055C4.95906 7.1227 4.74483 7.17481 4.48423 7.07926C4.23522 6.9895 3.98042 6.89106 3.71693 6.85631C2.98438 6.76366 2.60216 6.36987 2.46028 5.64311C2.34156 5.04665 2.11573 4.47045 1.93042 3.88846C1.85803 3.66261 1.85803 3.47151 2.03176 3.28041C2.8338 2.40018 3.76323 1.69658 4.85772 1.21304C5.10094 1.10591 5.29494 1.11749 5.5092 1.27384C6.09408 1.69658 6.67318 2.12801 7.28123 2.5131C7.69817 2.77659 7.91826 3.0893 7.84587 3.59023C7.8256 3.72921 7.84297 3.87109 7.84297 4.14905V4.15195Z" fill="url(#paint2_linear_5659_104895)"/>
<path d="M14.5026 3.74355C14.2333 4.60061 13.964 5.51847 13.6484 6.41896C13.5413 6.72588 11.6216 7.23259 11.3523 7.05018C10.4866 6.45661 9.63239 5.84566 8.77533 5.24051C8.63635 5.14206 8.56689 5.01177 8.56979 4.84094C8.56979 4.79461 8.56979 4.74828 8.56979 4.69906C8.53889 3.51771 9.0099 2.58922 9.98277 1.91361C10.1507 1.79779 10.3418 1.70513 10.4808 1.56326C10.9701 1.06524 11.4507 1.09709 12.0269 1.44454C12.8522 1.93967 13.6368 2.47533 14.2767 3.19921C14.5084 3.4569 14.5229 3.50902 14.5026 3.74645V3.74355Z" fill="url(#paint3_linear_5659_104895)"/>
<path d="M2.82524 13.1076C2.41698 13.1076 2.00873 13.0989 1.60336 13.1105C1.33988 13.1191 1.16616 13.0265 1.03297 12.7891C0.485723 11.8191 0.167214 10.7767 0.0108583 9.67933C-0.0325738 9.36951 0.0514087 9.14367 0.314896 8.95257C0.963481 8.4864 1.60049 8.00285 2.23459 7.51352C2.45465 7.34269 2.66599 7.35137 2.93238 7.38901C4.1977 7.56564 5.02583 8.16789 5.1735 9.51139C5.18508 9.61852 5.22272 9.73145 5.27773 9.82121C6.10005 11.1039 5.30956 12.0131 4.56253 12.9338C4.43802 13.0873 4.27298 13.1047 4.09636 13.1047C3.67362 13.1047 3.25088 13.1047 2.82524 13.1047V13.1076Z" fill="url(#paint4_linear_5659_104895)"/>
<path d="M16.3671 9.57785C16.3468 9.78922 16.3265 9.94268 16.3149 10.099C16.257 10.7795 15.9993 11.2022 15.2436 11.402C14.1896 11.68 13.2834 12.3054 12.5276 13.1045C12.2497 13.3999 12.0905 13.3506 11.8878 13.0437C11.549 12.5341 11.1958 12.0361 10.8309 11.5468C10.6833 11.347 10.6659 11.1617 10.7441 10.9358C11.051 10.0469 11.3521 9.158 11.6417 8.2633C11.7227 8.01429 11.8704 7.87821 12.1136 7.79714C13.2197 7.42072 14.2399 7.58287 15.1741 8.28357C15.4608 8.50073 15.7445 8.72368 16.0398 8.92926C16.2918 9.10589 16.4713 9.29699 16.3671 9.57785Z" fill="url(#paint5_linear_5659_104895)"/>
<path d="M8.16721 10.9445C7.71262 10.9445 7.258 10.9358 6.80342 10.9474C6.54282 10.9532 6.39808 10.8403 6.3199 10.5999C6.03904 9.75157 5.75815 8.90609 5.46861 8.06061C5.39043 7.83187 5.44834 7.68131 5.64812 7.54522C6.40963 7.02114 7.16538 6.48837 7.9153 5.94982C8.1093 5.81084 8.27431 5.81084 8.46831 5.94982C9.22113 6.48548 9.97688 7.01535 10.7384 7.54232C10.9526 7.68999 10.9932 7.86662 10.9063 8.10984C10.6167 8.93794 10.333 9.76604 10.0608 10.5999C9.97974 10.8461 9.83789 10.9532 9.5802 10.9474C9.11113 10.9387 8.63917 10.9474 8.17011 10.9474L8.16721 10.9445Z" fill="url(#paint6_linear_5659_104895)"/>
<path d="M3.10008 13.8285C4.64626 13.8575 4.26982 13.5998 4.78521 15.0562C4.89524 15.3661 4.99951 15.6787 5.10085 15.9914C5.1327 16.0928 5.20508 16.2115 5.09506 16.2955C5.01398 16.3563 4.91554 16.2926 4.83157 16.252C3.76025 15.7656 2.825 15.091 2.04322 14.2107C1.97373 14.1326 1.86662 14.0515 1.91584 13.9299C1.96796 13.8025 2.10115 13.8314 2.20539 13.8285C2.50362 13.8227 2.80184 13.8285 3.10008 13.8285Z" fill="url(#paint7_linear_5659_104895)"/>
<path d="M16.3583 7.7308C16.3583 7.88715 16.4365 8.02324 16.3322 8.09273C16.199 8.1796 16.1064 8.04061 16.0108 7.97112C15.5707 7.64683 15.1393 7.31096 14.6963 6.99246C14.4646 6.82452 14.3749 6.6479 14.4791 6.35545C14.6557 5.85454 14.7976 5.34204 14.9598 4.83823C15.0003 4.71083 14.9945 4.52262 15.1653 4.51104C15.3014 4.50235 15.3478 4.6674 15.4057 4.77163C15.924 5.71266 16.2598 6.7116 16.3641 7.7308H16.3583Z" fill="url(#paint8_linear_5659_104895)"/>
<path d="M0.00776334 7.82324C0.146746 6.70559 0.476849 5.65164 1.04147 4.67297C1.08779 4.5948 1.13121 4.49345 1.24413 4.50214C1.36285 4.51083 1.37155 4.62665 1.4005 4.71061C1.58002 5.27813 1.75374 5.84853 1.93325 6.41604C2.00275 6.63899 1.95642 6.79825 1.75664 6.94012C1.28468 7.27889 0.827172 7.63504 0.361002 7.9796C0.277033 8.0433 0.187274 8.14753 0.0714552 8.08094C-0.0211997 8.02882 0.0106617 7.913 0.0106617 7.82324H0.00776334Z" fill="url(#paint9_linear_5659_104895)"/>
<path d="M8.1908 0.532552C8.77569 0.503598 9.33162 0.561507 9.88465 0.688907C10.1279 0.743921 10.1916 0.848158 9.96283 1.0103C9.43875 1.38092 8.9147 1.74575 8.39062 2.11637C8.23716 2.2264 8.10104 2.19165 7.96206 2.09031C7.46404 1.73707 6.96605 1.38671 6.46803 1.03347C6.39275 0.981349 6.2972 0.929231 6.31457 0.819203C6.33484 0.703384 6.45355 0.70628 6.53752 0.686012C7.08766 0.544134 7.64648 0.503598 8.19373 0.532552H8.1908Z" fill="url(#paint10_linear_5659_104895)"/>
<path d="M18.0203 19.9033C18.0203 19.5906 18.0174 19.2779 18.0203 18.9623C18.0261 18.6988 18.1506 18.5888 18.417 18.6756C18.4604 18.6901 18.5097 18.6959 18.5531 18.7075C19.332 18.9073 19.8561 19.4082 19.8503 19.9497C19.8445 20.4882 19.2422 21.0181 18.4778 21.1802C18.1796 21.2439 18.0203 21.16 18.0203 20.8415C18.0203 20.5287 18.0203 20.216 18.0203 19.9004V19.9033Z" fill="url(#paint11_linear_5659_104895)"/>
<path d="M17.2851 16.4954C17.2851 16.7763 17.2706 17.0601 17.288 17.3409C17.3111 17.7058 17.1663 17.836 16.816 17.7231C16.8015 17.7173 16.7841 17.7173 16.7697 17.7144C16.0313 17.5291 15.4493 16.9819 15.4551 16.4752C15.4609 15.9424 16.1327 15.3633 16.8797 15.2301C17.1548 15.1809 17.2995 15.2475 17.288 15.5573C17.2764 15.87 17.288 16.1827 17.288 16.4954H17.2851Z" fill="url(#paint12_linear_5659_104895)"/>
<defs>
<linearGradient id="paint0_linear_5659_104895" x1="11.1465" y1="18.1954" x2="24.1647" y2="18.1954" gradientUnits="userSpaceOnUse">
<stop stop-color="#F2D71A"/>
<stop offset="1" stop-color="#ECB024"/>
</linearGradient>
<linearGradient id="paint1_linear_5659_104895" x1="5.12988" y1="14.2705" x2="11.5017" y2="14.2705" gradientUnits="userSpaceOnUse">
<stop stop-color="#F2D71A"/>
<stop offset="1" stop-color="#ECB024"/>
</linearGradient>
<linearGradient id="paint2_linear_5659_104895" x1="1.88477" y1="4.13488" x2="7.89358" y2="4.13488" gradientUnits="userSpaceOnUse">
<stop stop-color="#F2D71A"/>
<stop offset="1" stop-color="#ECB024"/>
</linearGradient>
<linearGradient id="paint3_linear_5659_104895" x1="8.56836" y1="4.13739" x2="14.5091" y2="4.13739" gradientUnits="userSpaceOnUse">
<stop stop-color="#F2D71A"/>
<stop offset="1" stop-color="#ECB024"/>
</linearGradient>
<linearGradient id="paint4_linear_5659_104895" x1="0" y1="10.2388" x2="5.6271" y2="10.2388" gradientUnits="userSpaceOnUse">
<stop stop-color="#F2D71A"/>
<stop offset="1" stop-color="#ECB024"/>
</linearGradient>
<linearGradient id="paint5_linear_5659_104895" x1="10.6982" y1="10.4508" x2="16.3973" y2="10.4508" gradientUnits="userSpaceOnUse">
<stop stop-color="#F2D71A"/>
<stop offset="1" stop-color="#ECB024"/>
</linearGradient>
<linearGradient id="paint6_linear_5659_104895" x1="5.43506" y1="8.3966" x2="10.949" y2="8.3966" gradientUnits="userSpaceOnUse">
<stop stop-color="#F2D71A"/>
<stop offset="1" stop-color="#ECB024"/>
</linearGradient>
<linearGradient id="paint7_linear_5659_104895" x1="1.90332" y1="15.0733" x2="5.15381" y2="15.0733" gradientUnits="userSpaceOnUse">
<stop stop-color="#F2D71A"/>
<stop offset="1" stop-color="#ECB024"/>
</linearGradient>
<linearGradient id="paint8_linear_5659_104895" x1="14.436" y1="6.31557" x2="16.3864" y2="6.31557" gradientUnits="userSpaceOnUse">
<stop stop-color="#F2D71A"/>
<stop offset="1" stop-color="#ECB024"/>
</linearGradient>
<linearGradient id="paint9_linear_5659_104895" x1="0.00537109" y1="6.30198" x2="1.96358" y2="6.30198" gradientUnits="userSpaceOnUse">
<stop stop-color="#F2D71A"/>
<stop offset="1" stop-color="#ECB024"/>
</linearGradient>
<linearGradient id="paint10_linear_5659_104895" x1="6.3125" y1="1.354" x2="10.1047" y2="1.354" gradientUnits="userSpaceOnUse">
<stop stop-color="#F2D71A"/>
<stop offset="1" stop-color="#ECB024"/>
</linearGradient>
<linearGradient id="paint11_linear_5659_104895" x1="18.019" y1="19.9232" x2="19.8503" y2="19.9232" gradientUnits="userSpaceOnUse">
<stop stop-color="#F2D71A"/>
<stop offset="1" stop-color="#ECB024"/>
</linearGradient>
<linearGradient id="paint12_linear_5659_104895" x1="15.4551" y1="16.489" x2="17.2903" y2="16.489" gradientUnits="userSpaceOnUse">
<stop stop-color="#F2D71A"/>
<stop offset="1" stop-color="#ECB024"/>
</linearGradient>
</defs>
</svg>
